<?xml version="1.0" standalone="no"?>
<!DOCTYPE svg PUBLIC "-//W3C//DTD SVG 20010904//EN"
 "http://www.w3.org/TR/2001/REC-SVG-20010904/DTD/svg10.dtd">
<svg version="1.0" xmlns="http://www.w3.org/2000/svg"
 width="517.000000pt" height="137.000000pt" viewBox="0 0 517.000000 137.000000"
 preserveAspectRatio="xMidYMid meet">
<defs>
<clipPath id="buildbyClip">
<rect x="0" y="0" width="2850" height="1370" />
</clipPath>
</defs>
<g transform="translate(0.000000,137.000000) scale(0.100000,-0.100000)"
fill="#000000" stroke="none">
<path d="M150 707 c0 -286 2 -315 18 -329 75 -66 260 -72 333 -11 104 88 104
318 -1 407 -54 45 -145 48 -202 6 l-29 -21 3 130 3 131 -62 0 -63 0 0 -313z
m270 -25 c78 -78 34 -252 -64 -252 -66 0 -93 54 -84 165 8 101 87 147 148 87z"/>
<path d="M1118 990 c-63 -64 12 -153 93 -109 28 15 41 53 28 86 -22 59 -75 69
-121 23z"/>
<path d="M1315 1007 c-3 -6 -4 -161 -3 -342 l3 -330 58 -3 57 -3 0 346 0 345
-55 0 c-36 0 -57 -5 -60 -13z"/>
<path d="M1780 895 l0 -125 -32 20 c-115 70 -250 -23 -265 -183 -18 -199 101
-331 242 -268 25 11 45 25 45 30 0 21 19 11 22 -12 3 -19 10 -22 56 -25 l52
-3 0 345 0 346 -60 0 -60 0 0 -125z m-29 -214 c49 -50 38 -224 -16 -245 -56
-21 -109 5 -125 62 -40 147 54 270 141 183z"/>
<path d="M1980 707 c0 -289 1 -315 18 -330 88 -80 287 -65 355 25 84 113 54
333 -53 389 -61 33 -154 23 -187 -20 -10 -13 -12 10 -13 117 l0 132 -60 0 -60
0 0 -313z m264 -26 c75 -78 33 -251 -62 -251 -64 0 -77 24 -77 137 0 91 1 96
28 119 38 33 77 31 111 -5z"/>
<path d="M2910 1008 c-1 -7 -1 -161 -1 -343 l0 -330 61 0 60 0 0 145 c0 177
19 220 97 220 58 0 67 -28 68 -209 l0 -156 63 -2 62 -1 0 186 c0 162 -2 192
-18 222 -43 80 -177 95 -249 28 l-23 -21 0 136 0 137 -60 0 c-41 0 -60 -4 -60
-12z"/>
<path d="M4809 1007 c-62 -47 -34 -137 42 -137 68 0 101 90 49 131 -28 21 -68
24 -91 6z"/>
<path d="M3510 794 c-87 -38 -124 -105 -125 -224 0 -166 62 -233 219 -238 132
-5 180 20 184 95 l3 53 -53 -25 c-82 -38 -150 -35 -194 9 -67 67 -55 76 111
76 l145 0 0 48 c0 143 -71 222 -197 222 -32 -1 -74 -8 -93 -16z m145 -99 c14
-13 25 -36 25 -50 0 -25 -1 -25 -85 -25 -98 0 -111 16 -56 71 38 37 82 39 116
4z"/>
<path d="M4070 804 c-8 -4 -30 -20 -47 -37 l-33 -31 0 32 0 32 -60 0 -60 0 2
-231 3 -231 57 -2 57 -2 3 152 3 153 29 30 c36 38 83 42 112 10 17 -18 20 -42
24 -183 l5 -161 60 0 60 0 0 48 c-1 26 -2 115 -3 197 l-2 150 -34 37 c-31 34
-38 37 -97 40 -35 1 -71 0 -79 -3z"/>
<path d="M4585 799 c-11 -6 -35 -27 -52 -47 l-33 -37 0 43 0 42 -60 0 -60 0 0
-236 0 -235 63 4 62 5 5 133 c7 176 27 209 130 209 l50 0 0 65 0 65 -42 0
c-24 0 -52 -5 -63 -11z"/>
<path d="M632 606 c3 -178 5 -197 24 -223 51 -70 152 -80 219 -22 l34 30 3
-28 c3 -27 5 -28 58 -28 l55 0 3 233 2 233 -62 -3 -63 -3 0 -150 c0 -127 -3
-155 -18 -178 -22 -34 -62 -45 -96 -26 l-26 15 -3 172 -2 172 -66 0 -65 0 3
-194z"/>
<path d="M1110 565 l0 -235 60 0 60 0 0 235 0 235 -60 0 -60 0 0 -235z"/>
<path d="M2405 783 c15 -39 123 -341 139 -390 26 -80 -8 -132 -96 -147 l-38
-7 0 -51 0 -50 54 4 c66 6 137 45 171 97 20 29 188 460 212 544 5 16 -1 18
-57 15 l-63 -3 -13 -40 c-7 -22 -30 -94 -50 -159 l-37 -119 -50 161 -51 162
-64 0 c-57 0 -63 -2 -57 -17z"/>
<path d="M4782 568 l3 -233 65 2 65 1 -2 229 -1 228 -66 3 -66 3 2 -233z"/>
</g>
<g transform="translate(0.000000,137.000000) scale(0.100000,-0.100000)"
fill="#7a7a7a" stroke="none" clip-path="url(#buildbyClip)">
<path d="M150 707 c0 -286 2 -315 18 -329 75 -66 260 -72 333 -11 104 88 104
318 -1 407 -54 45 -145 48 -202 6 l-29 -21 3 130 3 131 -62 0 -63 0 0 -313z
m270 -25 c78 -78 34 -252 -64 -252 -66 0 -93 54 -84 165 8 101 87 147 148 87z"/>
<path d="M1118 990 c-63 -64 12 -153 93 -109 28 15 41 53 28 86 -22 59 -75 69
-121 23z"/>
<path d="M1315 1007 c-3 -6 -4 -161 -3 -342 l3 -330 58 -3 57 -3 0 346 0 345
-55 0 c-36 0 -57 -5 -60 -13z"/>
<path d="M1780 895 l0 -125 -32 20 c-115 70 -250 -23 -265 -183 -18 -199 101
-331 242 -268 25 11 45 25 45 30 0 21 19 11 22 -12 3 -19 10 -22 56 -25 l52
-3 0 345 0 346 -60 0 -60 0 0 -125z m-29 -214 c49 -50 38 -224 -16 -245 -56
-21 -109 5 -125 62 -40 147 54 270 141 183z"/>
<path d="M1980 707 c0 -289 1 -315 18 -330 88 -80 287 -65 355 25 84 113 54
333 -53 389 -61 33 -154 23 -187 -20 -10 -13 -12 10 -13 117 l0 132 -60 0 -60
0 0 -313z m264 -26 c75 -78 33 -251 -62 -251 -64 0 -77 24 -77 137 0 91 1 96
28 119 38 33 77 31 111 -5z"/>
<path d="M2910 1008 c-1 -7 -1 -161 -1 -343 l0 -330 61 0 60 0 0 145 c0 177
19 220 97 220 58 0 67 -28 68 -209 l0 -156 63 -2 62 -1 0 186 c0 162 -2 192
-18 222 -43 80 -177 95 -249 28 l-23 -21 0 136 0 137 -60 0 c-41 0 -60 -4 -60
-12z"/>
<path d="M4809 1007 c-62 -47 -34 -137 42 -137 68 0 101 90 49 131 -28 21 -68
24 -91 6z"/>
<path d="M3510 794 c-87 -38 -124 -105 -125 -224 0 -166 62 -233 219 -238 132
-5 180 20 184 95 l3 53 -53 -25 c-82 -38 -150 -35 -194 9 -67 67 -55 76 111
76 l145 0 0 48 c0 143 -71 222 -197 222 -32 -1 -74 -8 -93 -16z m145 -99 c14
+13 25 -36 25 -50 0 -25 -1 -25 -85 -25 -98 0 -111 16 -56 71 38 37 82 39 116
+4z"/>
<path d="M4070 804 c-8 -4 -30 -20 -47 -37 l-33 -31 0 32 0 32 -60 0 -60 0 2
-231 3 -231 57 -2 57 -2 3 152 3 153 29 30 c36 38 83 42 112 10 17 -18 20 -42
24 -183 l5 -161 60 0 60 0 0 48 c-1 26 -2 115 -3 197 l-2 150 -34 37 c-31 34
-38 37 -97 40 -35 1 -71 0 -79 -3z"/>
<path d="M4585 799 c-11 -6 -35 -27 -52 -47 l-33 -37 0 43 0 42 -60 0 -60 0 0
-236 0 -235 63 4 62 5 5 133 c7 176 27 209 130 209 l50 0 0 65 0 65 -42 0
c-24 0 -52 -5 -63 -11z"/>
<path d="M632 606 c3 -178 5 -197 24 -223 51 -70 152 -80 219 -22 l34 30 3
-28 c3 -27 5 -28 58 -28 l55 0 3 233 2 233 -62 -3 -63 -3 0 -150 c0 -127 -3
-155 -18 -178 -22 -34 -62 -45 -96 -26 l-26 15 -3 172 -2 172 -66 0 -65 0 3
-194z"/>
<path d="M1110 565 l0 -235 60 0 60 0 0 235 0 235 -60 0 -60 0 0 -235z"/>
<path d="M2405 783 c15 -39 123 -341 139 -390 26 -80 -8 -132 -96 -147 l-38
-7 0 -51 0 -50 54 4 c66 6 137 45 171 97 20 29 188 460 212 544 5 16 -1 18
-57 15 l-63 -3 -13 -40 c-7 -22 -30 -94 -50 -159 l-37 -119 -50 161 -51 162
-64 0 c-57 0 -63 -2 -57 -17z"/>
<path d="M4782 568 l3 -233 65 2 65 1 -2 229 -1 228 -66 3 -66 3 2 -233z"/>
</g>
</svg>
